<?xml version="1.0" encoding="utf-8"?>
<!-- Generator: Adobe Illustrator 27.5.0, SVG Export Plug-In . SVG Version: 6.00 Build 0)  -->
<svg version="1.1" xmlns="http://www.w3.org/2000/svg" xmlns:xlink="http://www.w3.org/1999/xlink" x="0px" y="0px"
	 viewBox="0 0 500 500" style="enable-background:new 0 0 500 500;" xml:space="preserve">
<g id="Background_Complete">
	<g>
		<rect y="382.398" style="fill:#EBEBEB;" width="500" height="0.25"/>
		<rect x="416.779" y="398.494" style="fill:#EBEBEB;" width="33.122" height="0.25"/>
		<rect x="322.527" y="401.208" style="fill:#EBEBEB;" width="8.693" height="0.25"/>
		<rect x="396.586" y="389.208" style="fill:#EBEBEB;" width="19.192" height="0.25"/>
		<rect x="52.459" y="390.888" style="fill:#EBEBEB;" width="43.193" height="0.25"/>
		<rect x="104.556" y="390.888" style="fill:#EBEBEB;" width="6.333" height="0.25"/>
		<rect x="131.471" y="395.111" style="fill:#EBEBEB;" width="93.676" height="0.25"/>
		<path style="fill:#EBEBEB;" d="M237.014,337.8H43.915c-3.147,0-5.708-2.561-5.708-5.708V60.66c0-3.147,2.561-5.708,5.708-5.708
			h193.099c3.146,0,5.707,2.561,5.707,5.708v271.432C242.721,335.239,240.16,337.8,237.014,337.8z M43.915,55.203
			c-3.01,0-5.458,2.448-5.458,5.458v271.432c0,3.01,2.448,5.458,5.458,5.458h193.099c3.009,0,5.457-2.448,5.457-5.458V60.66
			c0-3.009-2.448-5.458-5.457-5.458H43.915z"/>
		<path style="fill:#EBEBEB;" d="M453.31,337.8H260.212c-3.147,0-5.707-2.561-5.707-5.708V60.66c0-3.147,2.561-5.708,5.707-5.708
			H453.31c3.148,0,5.708,2.561,5.708,5.708v271.432C459.019,335.239,456.458,337.8,453.31,337.8z M260.212,55.203
			c-3.009,0-5.457,2.448-5.457,5.458v271.432c0,3.01,2.448,5.458,5.457,5.458H453.31c3.01,0,5.458-2.448,5.458-5.458V60.66
			c0-3.009-2.448-5.458-5.458-5.458H260.212z"/>
	</g>
	<g>
		<g>
			<path style="fill:#F5F5F5;" d="M296.759,75.336l-0.845,1.713c-0.099,0.202-0.292,0.341-0.514,0.374l-1.89,0.275
				c-0.56,0.081-0.784,0.77-0.379,1.165l1.368,1.333c0.161,0.157,0.234,0.383,0.197,0.605l-0.323,1.882
				c-0.096,0.558,0.49,0.984,0.991,0.72l1.691-0.889c0.199-0.105,0.437-0.105,0.636,0l1.691,0.889
				c0.501,0.263,1.087-0.162,0.991-0.72l-0.323-1.882c-0.038-0.222,0.035-0.448,0.197-0.605l1.368-1.333
				c0.405-0.395,0.182-1.084-0.379-1.165l-1.89-0.275c-0.223-0.032-0.415-0.172-0.514-0.374l-0.845-1.713
				C297.734,74.828,297.01,74.828,296.759,75.336z"/>
			<path style="fill:#F0F0F0;" d="M275.302,358.194l-0.845,1.713c-0.1,0.202-0.292,0.341-0.514,0.374l-1.89,0.275
				c-0.56,0.081-0.784,0.77-0.379,1.165l1.368,1.333c0.161,0.157,0.234,0.383,0.197,0.605l-0.323,1.883
				c-0.096,0.558,0.49,0.984,0.991,0.72l1.69-0.889c0.199-0.105,0.437-0.105,0.636,0l1.691,0.889
				c0.501,0.264,1.087-0.162,0.991-0.72l-0.323-1.883c-0.038-0.222,0.036-0.448,0.197-0.605l1.368-1.333
				c0.406-0.395,0.182-1.084-0.379-1.165l-1.89-0.275c-0.223-0.032-0.415-0.172-0.514-0.374l-0.845-1.713
				C276.277,357.687,275.553,357.687,275.302,358.194z"/>
			<path style="fill:#F0F0F0;" d="M424.337,250.381l-0.845,1.713c-0.099,0.202-0.292,0.341-0.514,0.374l-1.89,0.275
				c-0.56,0.081-0.784,0.77-0.379,1.165l1.368,1.333c0.161,0.157,0.234,0.383,0.197,0.605l-0.323,1.883
				c-0.096,0.558,0.49,0.984,0.991,0.72l1.691-0.889c0.199-0.105,0.437-0.105,0.636,0l1.69,0.889
				c0.501,0.263,1.087-0.162,0.991-0.72l-0.323-1.883c-0.038-0.222,0.035-0.448,0.197-0.605l1.368-1.333
				c0.406-0.395,0.182-1.084-0.379-1.165l-1.89-0.275c-0.223-0.032-0.415-0.172-0.515-0.374l-0.845-1.713
				C425.311,249.873,424.587,249.873,424.337,250.381z"/>
			<path style="fill:#F0F0F0;" d="M215.238,306.673l-0.505,1.024c-0.06,0.121-0.174,0.204-0.308,0.223l-1.13,0.164
				c-0.335,0.049-0.469,0.46-0.226,0.697l0.818,0.797c0.096,0.094,0.14,0.229,0.117,0.362l-0.193,1.125
				c-0.057,0.334,0.293,0.588,0.592,0.431l1.01-0.531c0.119-0.063,0.261-0.063,0.38,0l1.01,0.531c0.3,0.158,0.65-0.097,0.592-0.431
				l-0.193-1.125c-0.023-0.133,0.021-0.268,0.118-0.362l0.818-0.797c0.242-0.236,0.109-0.648-0.226-0.697l-1.13-0.164
				c-0.133-0.019-0.248-0.103-0.307-0.223l-0.505-1.024C215.821,306.37,215.388,306.37,215.238,306.673z"/>
			<path style="fill:#F5F5F5;" d="M329.679,306.673l-0.505,1.024c-0.06,0.121-0.174,0.204-0.307,0.223l-1.13,0.164
				c-0.335,0.049-0.469,0.46-0.226,0.697l0.818,0.797c0.096,0.094,0.14,0.229,0.117,0.362l-0.193,1.125
				c-0.057,0.334,0.293,0.588,0.592,0.431l1.01-0.531c0.119-0.063,0.261-0.063,0.38,0l1.01,0.531c0.3,0.158,0.65-0.097,0.592-0.431
				l-0.193-1.125c-0.023-0.133,0.021-0.268,0.117-0.362l0.818-0.797c0.242-0.236,0.109-0.648-0.226-0.697l-1.13-0.164
				c-0.133-0.019-0.248-0.103-0.307-0.223l-0.505-1.024C330.262,306.37,329.829,306.37,329.679,306.673z"/>
			<path style="fill:#F5F5F5;" d="M77.726,76.898l-0.505,1.024c-0.059,0.12-0.174,0.204-0.307,0.223l-1.13,0.164
				c-0.335,0.049-0.469,0.46-0.226,0.697l0.817,0.797c0.096,0.094,0.14,0.229,0.118,0.361l-0.193,1.125
				c-0.057,0.334,0.293,0.588,0.593,0.431l1.01-0.531c0.119-0.063,0.261-0.063,0.38,0l1.01,0.531c0.3,0.157,0.65-0.097,0.593-0.431
				l-0.193-1.125c-0.023-0.132,0.021-0.268,0.117-0.361l0.817-0.797c0.242-0.236,0.109-0.648-0.226-0.697l-1.13-0.164
				c-0.133-0.019-0.248-0.103-0.307-0.223l-0.505-1.024C78.308,76.594,77.876,76.594,77.726,76.898z"/>
			<path style="fill:#F0F0F0;" d="M86.419,265.625l-0.874,1.772c-0.103,0.209-0.302,0.353-0.532,0.387l-1.955,0.284
				c-0.58,0.084-0.811,0.797-0.392,1.206l1.415,1.379c0.167,0.162,0.243,0.396,0.203,0.626l-0.334,1.947
				c-0.099,0.577,0.507,1.018,1.026,0.745l1.749-0.919c0.206-0.108,0.452-0.108,0.658,0l1.749,0.919
				c0.519,0.273,1.125-0.168,1.026-0.745l-0.334-1.947c-0.039-0.229,0.037-0.463,0.203-0.626l1.415-1.379
				c0.42-0.409,0.188-1.121-0.392-1.206l-1.955-0.284c-0.23-0.033-0.429-0.178-0.532-0.387l-0.874-1.772
				C87.428,265.1,86.679,265.1,86.419,265.625z"/>
			<path style="fill:#F0F0F0;" d="M193.537,99.885c0,0.733,0.594,1.327,1.327,1.327c0.733,0,1.327-0.594,1.327-1.327
				c0-0.733-0.594-1.327-1.327-1.327C194.131,98.558,193.537,99.152,193.537,99.885z"/>
			<circle style="fill:#F5F5F5;" cx="156.691" cy="357.667" r="1.327"/>
			<g>
				<path style="fill:#F5F5F5;" d="M107.051,133.14c-7.742-2.353-14.755-5.169-20.46-8.101c2.117,8.418,8.463,15.554,17.371,18.262
					c8.926,2.713,18.187,0.321,24.653-5.507C122.228,137.05,114.811,135.499,107.051,133.14z"/>
				<path style="fill:#F5F5F5;" d="M111.42,116.833c9.083,2.761,19.339,1.028,25.484,4.512c1.229-11.924-6.107-23.429-18.043-27.058
					c-11.919-3.623-24.417,1.853-30.031,12.444C95.873,107.257,102.338,114.073,111.42,116.833z"/>
				<path style="fill:#F5F5F5;" d="M72.859,107.074c-1.144,3.764,15.192,12.064,36.489,18.538
					c21.297,6.474,39.489,8.67,40.633,4.905c1.144-3.764-15.192-12.064-36.489-18.538C92.195,105.506,74.003,103.31,72.859,107.074z
					"/>
			</g>
		</g>
		<g>
			<path style="fill:#EBEBEB;" d="M392.117,206.434c-6.261,24.179-24.753,41.948-47.136,48.402
				c-11.324,3.268-23.64,3.631-35.871,0.464c-14.226-3.684-26.218-11.595-35.009-22.042l-0.016-0.013
				c-9.395-11.168-15.116-25.248-15.924-40.139c-0.258-4.571-0.046-9.209,0.664-13.878c0.354-2.311,0.822-4.63,1.421-6.944
				c0.627-2.42,1.379-4.779,2.243-7.061c6.081-16.131,17.848-28.82,32.354-36.334c14.391-7.468,31.489-9.853,48.418-5.469
				c16.672,4.318,30.3,14.462,39.267,27.686c10.151,14.945,14.328,33.855,10.202,52.735
				C392.546,204.707,392.341,205.568,392.117,206.434z"/>
			<path style="fill:#EBEBEB;" d="M429.3,147.268c-1.024,3.955-4.049,6.862-7.71,7.917c-1.852,0.535-3.867,0.594-5.867,0.076
				c-2.327-0.603-4.288-1.897-5.726-3.605l-0.003-0.002c-1.537-1.827-2.473-4.13-2.605-6.566c-0.042-0.748-0.008-1.506,0.109-2.27
				c0.058-0.378,0.134-0.757,0.232-1.136c0.103-0.396,0.225-0.782,0.367-1.155c0.995-2.639,2.919-4.714,5.292-5.943
				c2.354-1.221,5.151-1.611,7.92-0.895c2.727,0.706,4.956,2.366,6.423,4.529c1.66,2.445,2.344,5.538,1.669,8.626
				C429.37,146.986,429.336,147.127,429.3,147.268z"/>
			<path style="fill:#FAFAFA;" d="M392.732,203.841l-3.108-3.934l-4.609,12.122l-6.629-9.152l-3.548-13.81l-15.198-9.213
				l1.868,4.103l8.428,3.841l3.986,8.043l-12.645-0.476l-13.332-12.414l8.207,13.575l6.438,5.088l-5.487,3.394l-9.753,13.39
				l0.814,5.77c0,0-7.987,5.771-8.876,5.965c-0.887,0.185-17.798,11.307-17.798,11.307l6.46-22.507l-0.17-17.137l-16.042,0.887
				l-12.938-11.096l8.758-18.463l6.549-3.458l6.676,1.729l22.273,8.199l-0.099-4.059l-12.599-12.007l-8.101-1.467l-6.514,2.921
				l-3.727-0.965l6.503-8.154l6.031-2.66l13.588-3.567l10.149,3.674l15.416,2.73c0,0,12.703-3.316,18.824-4.935
				C392.681,166.051,396.858,184.961,392.732,203.841z"/>
			<path style="fill:#FAFAFA;" d="M344.982,254.835c-11.324,3.268-23.64,3.631-35.871,0.464
				c-14.226-3.684-26.218-11.595-35.009-22.042l9.654,5.11l8.786,7.298l23.163,5.999l19.667,0.07L344.982,254.835z"/>
			<polygon style="fill:#FAFAFA;" points="309.299,127.479 302.242,128.985 306.054,134.861 302.764,147.564 331.345,142.744 
				332.586,137.954 323.322,135.111 			"/>
			<path style="fill:#FAFAFA;" d="M299.235,140.608l-4.661,9.884l-10.61,5.422l-11.496,4.769l-5.456,5.711l-4.521-1.171
				c6.081-16.131,17.848-28.82,32.354-36.334L299.235,140.608z"/>
			<path style="fill:#FAFAFA;" d="M286.581,206.43l-8.261,6.03l-0.34,6.188l-0.915,3.532l-0.495,5.95l-2.492-1.692l-4.744-9.191
				l-3.984-14.525l-5.411-8.214l-1.776-1.402c-0.258-4.571-0.046-9.209,0.664-13.878l2.1,2.551l9.293-1.099l8.239,2.134l1.797,7.617
				l3.263,6.829l7.512,4.141L286.581,206.43z"/>
		</g>
	</g>
</g>
<g id="Background_Simple" style="display:none;">
	<g style="display:inline;">
		<path style="fill:#407BFF;" d="M289.825,339.915c-4.058-43.287-23.451-83.261-80.373-75.611
			c-42.785,5.75-44.429,60.809-95.241,37.895c-89.816-40.502-23.628-162.615,66.685-179.929
			c90.313-17.314,200.8,37.162,218.931,142.494c5.921,34.396,1.197,81.167-30.025,103.085
			C342.663,386.9,293.442,378.499,289.825,339.915z"/>
		<path style="opacity:0.9;fill:#FFFFFF;" d="M289.825,339.915c-4.058-43.287-23.451-83.261-80.373-75.611
			c-42.785,5.75-44.429,60.809-95.241,37.895c-89.816-40.502-23.628-162.615,66.685-179.929
			c90.313-17.314,200.8,37.162,218.931,142.494c5.921,34.396,1.197,81.167-30.025,103.085
			C342.663,386.9,293.442,378.499,289.825,339.915z"/>
	</g>
</g>
<g id="Shadow_1_">
	<ellipse id="_x3C_Path_x3E__154_" style="fill:#F5F5F5;" cx="250" cy="416.238" rx="193.889" ry="11.323"/>
</g>
<g id="Character_1_">
	<g>
		<g>
			<g>
				<path style="fill:#407BFF;" d="M229.863,168.975c3.791-2.427,5.965-7.342,8.977-10.622c5.981-6.514,15.267-17.144,16.665-23.187
					l-23.277-8.048l-7.69,18.92c-1.63,4.362-8.886,10.734-12.918,12.807c-2.363,1.228-4.946,2.311-7.565,3.405
					c-5.252,2.116-10.91,4.044-16.376,5.894l1.378,9.93c3.293,0.043,6.363-0.133,9.54-0.404c3.149-0.299,6.308-0.702,9.476-1.297
					c3.179-0.579,6.355-1.339,9.596-2.358C220.915,173.003,226.52,171.115,229.863,168.975z"/>
				<path style="opacity:0.8;fill:#FFFFFF;" d="M229.863,168.975c3.791-2.427,5.965-7.342,8.977-10.622
					c5.981-6.514,15.267-17.144,16.665-23.187l-23.277-8.048l-7.69,18.92c-1.63,4.362-8.886,10.734-12.918,12.807
					c-2.363,1.228-4.946,2.311-7.565,3.405c-5.252,2.116-10.91,4.044-16.376,5.894l1.378,9.93c3.293,0.043,6.363-0.133,9.54-0.404
					c3.149-0.299,6.308-0.702,9.476-1.297c3.179-0.579,6.355-1.339,9.596-2.358C220.915,173.003,226.52,171.115,229.863,168.975z"/>
			</g>
			<path style="fill:#263238;" d="M205.563,178.138l-4.219-15.908c0,0-24.455,4.464-25.232,11.23
				C175.309,180.455,192.332,180.286,205.563,178.138z"/>
			<path style="fill:#263238;" d="M188.028,169.847l3.541-4.961c0,0-12.42-1.563-12.747,0.427
				C178.38,168.005,182.071,169.857,188.028,169.847z"/>
		</g>
		<g>
			<path style="fill:#407BFF;" d="M300.65,276.35c-0.25,0-0.502-0.082-0.712-0.25c-4.823-3.863-20.16-17.527-15.009-31.201
				c4.226-11.216,14.457-20.673,26.701-24.68c4.669-1.528,9.602-2.326,14.373-3.097c3.287-0.531,6.686-1.081,9.939-1.863
				c14.948-3.593,22.476-13.462,19.646-25.756c-1.284-5.575-4.741-10.078-8.401-14.845c-2.901-3.778-5.901-7.685-7.704-12.171
				c-0.016-0.038-0.029-0.078-0.04-0.117c-1.713-6.11,0.722-11.98,3.078-17.658c0.553-1.332,1.075-2.591,1.547-3.858
				c2.025-5.432,3.856-11.272,3.544-17.17c-0.375-7.043-5.062-14.563-11.941-19.159c-10.752-7.183-30.59-13.602-39.023-4.571
				c-0.734,0.786-1.371,1.644-2.044,2.551c-0.848,1.143-1.724,2.324-2.824,3.37c-3.262,3.102-8.177,4.575-12.824,3.846
				c-4.72-0.741-9.264-4.036-11.306-8.198c-0.277-0.565-0.044-1.248,0.521-1.526c0.565-0.277,1.249-0.044,1.526,0.522
				c1.729,3.526,5.592,6.318,9.612,6.949c3.907,0.615,8.182-0.661,10.898-3.245c0.957-0.91,1.738-1.962,2.564-3.076
				c0.682-0.918,1.386-1.868,2.208-2.749c10.34-11.074,32.733-1.931,41.957,4.232c7.457,4.981,12.541,13.199,12.952,20.934
				c0.335,6.315-1.572,12.425-3.684,18.088c-0.487,1.306-1.042,2.643-1.578,3.935c-2.198,5.299-4.472,10.778-3.004,16.109
				c1.69,4.173,4.579,7.935,7.373,11.574c3.648,4.751,7.42,9.663,8.815,15.722c3.095,13.445-5.28,24.626-21.335,28.485
				c-3.336,0.802-6.779,1.358-10.107,1.896c-4.685,0.757-9.528,1.54-14.028,3.013c-11.603,3.798-21.288,12.732-25.275,23.317
				c-4.61,12.235,9.78,24.997,14.3,28.616c0.492,0.393,0.571,1.111,0.177,1.603C301.316,276.204,300.984,276.35,300.65,276.35z"/>
			<path style="opacity:0.7;fill:#FFFFFF;" d="M300.65,276.35c-0.25,0-0.502-0.082-0.712-0.25
				c-4.823-3.863-20.16-17.527-15.009-31.201c4.226-11.216,14.457-20.673,26.701-24.68c4.669-1.528,9.602-2.326,14.373-3.097
				c3.287-0.531,6.686-1.081,9.939-1.863c14.948-3.593,22.476-13.462,19.646-25.756c-1.284-5.575-4.741-10.078-8.401-14.845
				c-2.901-3.778-5.901-7.685-7.704-12.171c-0.016-0.038-0.029-0.078-0.04-0.117c-1.713-6.11,0.722-11.98,3.078-17.658
				c0.553-1.332,1.075-2.591,1.547-3.858c2.025-5.432,3.856-11.272,3.544-17.17c-0.375-7.043-5.062-14.563-11.941-19.159
				c-10.752-7.183-30.59-13.602-39.023-4.571c-0.734,0.786-1.371,1.644-2.044,2.551c-0.848,1.143-1.724,2.324-2.824,3.37
				c-3.262,3.102-8.177,4.575-12.824,3.846c-4.72-0.741-9.264-4.036-11.306-8.198c-0.277-0.565-0.044-1.248,0.521-1.526
				c0.565-0.277,1.249-0.044,1.526,0.522c1.729,3.526,5.592,6.318,9.612,6.949c3.907,0.615,8.182-0.661,10.898-3.245
				c0.957-0.91,1.738-1.962,2.564-3.076c0.682-0.918,1.386-1.868,2.208-2.749c10.34-11.074,32.733-1.931,41.957,4.232
				c7.457,4.981,12.541,13.199,12.952,20.934c0.335,6.315-1.572,12.425-3.684,18.088c-0.487,1.306-1.042,2.643-1.578,3.935
				c-2.198,5.299-4.472,10.778-3.004,16.109c1.69,4.173,4.579,7.935,7.373,11.574c3.648,4.751,7.42,9.663,8.815,15.722
				c3.095,13.445-5.28,24.626-21.335,28.485c-3.336,0.802-6.779,1.358-10.107,1.896c-4.685,0.757-9.528,1.54-14.028,3.013
				c-11.603,3.798-21.288,12.732-25.275,23.317c-4.61,12.235,9.78,24.997,14.3,28.616c0.492,0.393,0.571,1.111,0.177,1.603
				C301.316,276.204,300.984,276.35,300.65,276.35z"/>
		</g>
		<path style="opacity:0.2;" d="M232.96,151.68c-1.285,2.15-1.578,8.964-0.92,15.478c2.561-2.583,4.422-6.208,6.801-8.81
			c0.159-0.175,0.328-0.352,0.495-0.539C236.737,154.09,233.74,150.358,232.96,151.68z"/>
		<g>
			<path style="fill:#407BFF;" d="M232.229,127.118c0,0-6.039,24.491,11.058,65.054c13.762-2.45,38.979-6.938,45.675-8.13
				c-0.784-6.227-10.598-34.498-9.011-64.779c0,0-8.025-1.038-15.542-0.026c-5.88,0.791-14.359,2.131-19.416,3.457
				C238.325,124.441,232.229,127.118,232.229,127.118z"/>
			<path style="opacity:0.8;fill:#FFFFFF;" d="M232.229,127.118c0,0-6.039,24.491,11.058,65.054
				c13.762-2.45,38.979-6.938,45.675-8.13c-0.784-6.227-10.598-34.498-9.011-64.779c0,0-8.025-1.038-15.542-0.026
				c-5.88,0.791-14.359,2.131-19.416,3.457C238.325,124.441,232.229,127.118,232.229,127.118z"/>
		</g>
		<path style="opacity:0.2;" d="M274.706,142.092c1.84,2.473,4.607,4.941,6.808,6.714c-0.304-2.085-0.58-4.227-0.812-6.411
			L274.706,142.092z"/>
		<g>
			<path style="fill:#407BFF;" d="M243.287,192.172c0,0-23.157,26.898-21.262,50.12c1.97,24.155,27.137,63.746,27.137,63.746
				l15.281-7.658c0,0-10.034-41.608-17.767-53.7c8.46-14.095,19.633-30.908,27.347-56.699
				C259.899,190.496,243.287,192.172,243.287,192.172z"/>
			<path style="opacity:0.8;fill:#FFFFFF;" d="M243.287,192.172c0,0-23.157,26.898-21.262,50.12
				c1.97,24.155,27.137,63.746,27.137,63.746l15.281-7.658c0,0-10.034-41.608-17.767-53.7c8.46-14.095,19.633-30.908,27.347-56.699
				C259.899,190.496,243.287,192.172,243.287,192.172z"/>
		</g>
		<path style="opacity:0.2;" d="M265.031,206.252c-4.205,3.166-6.757,12.486-6.831,18.969c3.245-5.861,6.509-12.325,9.549-19.626
			C266.826,205.426,265.912,205.598,265.031,206.252z"/>
		<g>
			<path style="fill:#407BFF;" d="M249.566,304.6l13-7.927c0.395-0.217,0.906-0.096,1.231,0.291l5.549,9.576
				c0.75,0.894,0.573,2.229-0.348,2.712c-3.825,2.01-4.121,1.817-8.888,4.441c-2.933,1.614-8.786,5.284-12.836,7.513
				c-3.961,2.18-6.838-1.758-5.632-3.317c4.446-5.745,5.674-8.036,6.726-11.758C248.557,305.46,248.988,304.918,249.566,304.6z"/>
			<path style="opacity:0.8;fill:#FFFFFF;" d="M249.566,304.6l13-7.927c0.395-0.217,0.906-0.096,1.231,0.291l5.549,9.576
				c0.75,0.894,0.573,2.229-0.348,2.712c-3.825,2.01-4.121,1.817-8.888,4.441c-2.933,1.614-8.786,5.284-12.836,7.513
				c-3.961,2.18-6.838-1.758-5.632-3.317c4.446-5.745,5.674-8.036,6.726-11.758C248.557,305.46,248.988,304.918,249.566,304.6z"/>
		</g>
		<g>
			<g>
				<polygon style="fill:#407BFF;" points="351.328,319.642 275.151,397.646 262.036,371.068 324.446,307.16 				"/>
				<polygon style="opacity:0.4;" points="351.328,319.642 275.151,397.646 262.036,371.068 324.446,307.16 				"/>
			</g>
			<g>
				<polygon style="fill:#407BFF;" points="342.413,337.562 292.855,388.309 270.668,357.684 311.271,316.108 				"/>
				<polygon style="opacity:0.3;" points="342.413,337.562 292.855,388.309 270.668,357.684 311.271,316.108 				"/>
			</g>
			<g>
				<g>
					<g>
						<g>
							<path style="fill:#407BFF;" d="M202.415,321.374c0,0,19.492,20.769,36.245,38.835c4.797,5.173,6.256,12.526,4.208,19.379
								c-3.872,12.956,1.804,35.932,1.804,35.932C226.142,399.718,176.381,385.904,202.415,321.374z"/>
							<path style="opacity:0.3;" d="M202.415,321.374c0,0,19.492,20.769,36.245,38.835c4.797,5.173,6.256,12.526,4.208,19.379
								c-3.872,12.956,1.804,35.932,1.804,35.932C226.142,399.718,176.381,385.904,202.415,321.374z"/>
						</g>
						<g>
							<path style="fill:#407BFF;" d="M273.352,248.735c0,0,21.225,18.994,39.684,35.314c5.285,4.673,12.671,5.957,19.474,3.747
								c12.861-4.178,35.965,0.951,35.965,0.951C352.237,270.597,337.247,221.178,273.352,248.735z"/>
							<path style="opacity:0.3;" d="M273.352,248.735c0,0,21.225,18.994,39.684,35.314c5.285,4.673,12.671,5.957,19.474,3.747
								c12.861-4.178,35.965,0.951,35.965,0.951C352.237,270.597,337.247,221.178,273.352,248.735z"/>
						</g>
					</g>
					<path style="fill:#407BFF;" d="M224.699,198.661c-41.745-36.347-86.818-47.655-105.007-29.029
						c-18.189,18.625-5.816,63.418,31.511,104.29l92.601,101.395c7.676,8.405,20.841,8.625,28.793,0.482l56.828-58.192
						c7.953-8.144,7.421-21.299-1.164-28.774L224.699,198.661z"/>
					<path style="opacity:0.1;fill:#FFFFFF;" d="M273.787,360.514c2.206,1.118,2.73,4.023,1.011,5.801l0,0
						c-6.095,6.292-17.651,4.696-25.262-3.511l-91.87-99.007c-18.452-19.886-31.584-39.962-38.388-56.885
						c-1.997-4.967,4.946-8.51,7.832-4.001c9.212,14.393,22.937,31.573,40.129,49.475l96.696,100.655
						C267.078,356.311,270.526,358.861,273.787,360.514z"/>
					<path style="opacity:0.1;" d="M158.105,162.292c-9.343-0.338-21.078,4.994-30.713,14.859
						c-9.626,9.857-14.678,21.716-14.128,31.057c-3.778-16.349-1.807-30.139,6.43-38.574
						C127.932,161.2,141.671,158.903,158.105,162.292z"/>
				</g>
			</g>
			
				<ellipse transform="matrix(0.9998 -0.02 0.02 0.9998 -4.716 3.8366)" style="opacity:0.3;" cx="189.696" cy="237.995" rx="35.466" ry="35.466"/>
			
				<ellipse transform="matrix(0.6168 -0.7872 0.7872 0.6168 -114.1826 239.1536)" style="fill:#FFFFFF;" cx="188.511" cy="236.838" rx="35.466" ry="35.466"/>
			
				<ellipse transform="matrix(0.6571 -0.7538 0.7538 0.6571 -113.8898 223.3266)" style="opacity:0.7;fill:#407BFF;" cx="188.511" cy="236.838" rx="32.089" ry="32.089"/>
			<g style="opacity:0.2;">
				<path style="fill:#FFFFFF;" d="M165.556,214.415c-3.142,3.218-5.47,6.918-6.979,10.862l-0.008,0.009l15.358,40.143
					c6.258,3.194,13.351,4.199,20.119,3.012l-22.503-58.84C169.398,210.925,167.396,212.53,165.556,214.415z"/>
				<path style="fill:#FFFFFF;" d="M173.9,208.271l22.793,59.593c3.451-0.902,6.78-2.391,9.839-4.457l-22.304-58.368
					C180.658,205.512,177.166,206.581,173.9,208.271z"/>
			</g>
		</g>
		<g>
			<path style="fill:#407BFF;" d="M308.89,307.401l6.786-13.554c0.218-0.392,0.715-0.559,1.195-0.402l9.596,4.508
				c1.109,0.362,1.669,1.583,1.147,2.478c-2.168,3.715-2.335,4.377-4.974,9.108c-1.623,2.91-4.625,9.098-6.867,13.117
				c-2.192,3.931-6.718,2.115-6.526,0.161c0.709-7.202,0.53-9.786-0.558-13.49C308.494,308.66,308.57,307.974,308.89,307.401z"/>
			<path style="opacity:0.8;fill:#FFFFFF;" d="M308.89,307.401l6.786-13.554c0.218-0.392,0.715-0.559,1.195-0.402l9.596,4.508
				c1.109,0.362,1.669,1.583,1.147,2.478c-2.168,3.715-2.335,4.377-4.974,9.108c-1.623,2.91-4.625,9.098-6.867,13.117
				c-2.192,3.931-6.718,2.115-6.526,0.161c0.709-7.202,0.53-9.786-0.558-13.49C308.494,308.66,308.57,307.974,308.89,307.401z"/>
		</g>
		<g>
			<path style="fill:#407BFF;" d="M259.49,189.288c0,0,0.089,42.565,9.24,63.137c10.021,22.528,40.779,57.552,40.779,57.552
				l11.603-11.651c0,0-14.63-31.962-28.216-49.1c-0.276-21.087,1.963-44.083-3.595-63.192
				C271.809,189.147,259.49,189.288,259.49,189.288z"/>
			<path style="opacity:0.8;fill:#FFFFFF;" d="M259.49,189.288c0,0,0.089,42.565,9.24,63.137
				c10.021,22.528,40.779,57.552,40.779,57.552l11.603-11.651c0,0-14.63-31.962-28.216-49.1
				c-0.276-21.087,1.963-44.083-3.595-63.192C271.809,189.147,259.49,189.288,259.49,189.288z"/>
		</g>
		<path style="fill:#263238;" d="M287.818,189.311c-21.204,4.903-37.174,5.4-43.689,5.351c-1.737-0.013-3.101-1.483-2.997-3.217
			l0.001-0.01c0.096-1.611,1.431-2.862,3.045-2.855c6.175,0.028,21.83-0.463,42.289-5.188c1.615-0.373,3.233,0.623,3.628,2.233l0,0
			C290.498,187.271,289.47,188.929,287.818,189.311z"/>
		<g>
			<g>
				<path style="fill:#407BFF;" d="M311.341,144.935c-1.798-4.126-4.299-6.862-7.676-9.766
					c-6.704-5.768-17.629-14.704-23.714-15.906l-7.29,23.525c0,0,19.159,7.074,19.159,7.074c3.795,2.699,4.639,4.475,5.763,8.867
					c0.672,2.576,1.153,5.336,1.637,8.132c0.894,5.591,1.516,11.537,2.103,17.277l9.988,0.866c0.774-3.201,1.286-6.233,1.729-9.391
					c0.409-3.136,0.719-6.306,0.844-9.527c0.142-3.228,0.109-6.493-0.164-9.88C313.454,152.817,312.927,148.575,311.341,144.935z"/>
				<path style="opacity:0.8;fill:#FFFFFF;" d="M311.341,144.935c-1.798-4.126-4.299-6.862-7.676-9.766
					c-6.704-5.768-17.629-14.704-23.714-15.906l-7.29,23.525c0,0,19.159,7.074,19.159,7.074c3.795,2.699,4.639,4.475,5.763,8.867
					c0.672,2.576,1.153,5.336,1.637,8.132c0.894,5.591,1.516,11.537,2.103,17.277l9.988,0.866c0.774-3.201,1.286-6.233,1.729-9.391
					c0.409-3.136,0.719-6.306,0.844-9.527c0.142-3.228,0.109-6.493-0.164-9.88C313.454,152.817,312.927,148.575,311.341,144.935z"/>
			</g>
			<path style="fill:#263238;" d="M314.383,169.471l-15.786,0.03c0,0-1.089,24.835,5.336,27.098
				C310.574,198.938,313.534,182.849,314.383,169.471z"/>
			<path style="fill:#263238;" d="M303.061,184.178l-4.049-4.556c0,0-3.794,10.364-1.486,11.645
				C299.912,192.591,301.746,189.988,303.061,184.178z"/>
		</g>
		<path style="opacity:0.2;" d="M264.414,119.238c-5.889,0.793-14.368,2.127-19.42,3.455c-2.456,0.641-4.818,1.411-6.842,2.119
			c4.383,1.607,9.283,2.061,13.648,1.339c1.673-0.282,3.281-0.75,4.774-1.39c4.205-1.014,8.443-3.081,12.098-5.901
			C267.265,118.93,265.828,119.047,264.414,119.238z"/>
		<g>
			<path style="fill:#FFB573;" d="M256.649,100.766c-0.099,5.69,0.618,15.957,5.118,18.941c0,0,0.066,2.489-9.236,4.121
				c-7.589,1.331-7.853-1.079-7.853-1.079c5.871-2.556,4.903-7.077,3.074-11.159L256.649,100.766z"/>
			<path style="opacity:0.2;" d="M253.023,105.182l-5.266,6.403c0.436,0.965,0.818,1.955,1.067,2.939
				c2.282-0.755,5.042-3.9,4.854-6.396C253.584,106.883,253.324,105.717,253.023,105.182z"/>
			<path style="fill:#263238;" d="M239.26,100.149c-2.691-3.646-5.732-8.94-4.42-11.559c1.313-2.619,6.765-4.153,9.245-2.226
				C247.202,88.786,244.926,96.344,239.26,100.149z"/>
			<path style="fill:#FFB573;" d="M257.01,92.968c0.229,7.573,0.747,11.994-2.701,16.208c-5.188,6.339-14.8,3.744-17.286-3.608
				c-2.238-6.618-2.236-17.891,4.86-21.564C248.873,80.385,256.781,85.395,257.01,92.968z"/>
			<path style="fill:#263238;" d="M256.742,100.065c-3.36-3.04-7.391-7.626-6.623-10.453c0.768-2.827,5.808-5.411,8.621-4.014
				C262.274,87.353,261.541,95.213,256.742,100.065z"/>
			<path style="fill:#263238;" d="M253.031,89.137c-5.169,1.434-19.791,4.31-17.739-1.843c2.052-6.153,10.086-7.334,13.04-6.01
				c2.954,1.324,5.21-2.189,5.21-2.189c0.422,1.026-1.815,3.747-5.035,4.195c-3.22,0.448,13.781-2.503,9.332,3.537
				C253.39,92.867,253.031,89.137,253.031,89.137z"/>
			<path style="fill:#FFB573;" d="M261.173,100.957c-0.909,1.829-2.579,3.068-4.179,3.577c-2.407,0.765-3.699-1.365-3.105-3.683
				c0.535-2.086,2.431-4.999,4.883-4.754C261.187,96.337,262.213,98.865,261.173,100.957z"/>
			<path style="fill:#263238;" d="M245.78,96.122c0.056,0.613-0.223,1.14-0.624,1.177c-0.401,0.037-0.771-0.43-0.828-1.044
				c-0.056-0.613,0.223-1.14,0.624-1.177C245.353,95.041,245.724,95.508,245.78,96.122z"/>
			<path style="fill:#263238;" d="M238.849,96.758c0.056,0.613-0.223,1.14-0.624,1.177c-0.401,0.037-0.771-0.43-0.828-1.044
				c-0.056-0.613,0.223-1.14,0.624-1.177C238.423,95.677,238.793,96.145,238.849,96.758z"/>
			<path style="fill:#ED893E;" d="M241.081,96.861c0,0-1.07,3.665-2.448,5.513c1.178,0.913,2.98,0.281,2.98,0.281L241.081,96.861z"
				/>
			<path style="fill:#263238;" d="M246.598,102.941c-0.653,0.553-1.642,1.115-3.043,1.243c-0.1,0.009-0.188-0.064-0.197-0.163
				c-0.009-0.101,0.065-0.187,0.164-0.197c2.684-0.246,3.776-2.242,3.786-2.263c0.048-0.088,0.156-0.122,0.245-0.075
				c0.088,0.047,0.122,0.156,0.075,0.245C247.603,101.776,247.29,102.354,246.598,102.941z"/>
			<path style="fill:#263238;" d="M247.865,93.61c-0.148,0.125-0.37,0.112-0.501-0.032c-1.087-1.191-2.404-0.993-2.418-0.99
				c-0.197,0.033-0.383-0.102-0.415-0.299c-0.032-0.196,0.101-0.383,0.298-0.415c0.069-0.011,1.72-0.261,3.068,1.216
				c0.135,0.147,0.124,0.377-0.023,0.511C247.871,93.605,247.868,93.608,247.865,93.61z"/>
			<path style="fill:#263238;" d="M235.798,94.571c-0.097,0.083-0.235,0.111-0.362,0.063c-0.187-0.07-0.281-0.279-0.211-0.466
				c0.706-1.872,2.333-2.25,2.401-2.265c0.195-0.043,0.388,0.08,0.431,0.275c0.043,0.194-0.079,0.386-0.274,0.431
				c-0.056,0.013-1.32,0.323-1.882,1.814C235.88,94.482,235.843,94.533,235.798,94.571z"/>
		</g>
		<g>
			<g>
				<path style="fill:#407BFF;" d="M273.507,97.875c2.342,12.373-4.905,24.074-16.333,26.813c-0.44,0.099-0.893,0.195-1.341,0.276
					c-5.648,0.982-11.224-0.354-15.822-3.353c4.212,1.061,8.787,0.716,13.015-1.282c9.728-4.597,13.879-16.209,9.287-25.928
					c-4.597-9.728-16.2-13.884-25.928-9.287c-1.008,0.477-1.957,1.033-2.841,1.657c2.232-2.991,5.186-5.372,8.658-6.883l0.027-0.013
					c1.502-0.645,3.096-1.117,4.774-1.412C259.209,76.341,271.066,85.04,273.507,97.875z"/>
				<path style="opacity:0.8;fill:#FFFFFF;" d="M273.507,97.875c2.342,12.373-4.905,24.074-16.333,26.813
					c-0.44,0.099-0.893,0.195-1.341,0.276c-5.648,0.982-11.224-0.354-15.822-3.353c4.212,1.061,8.787,0.716,13.015-1.282
					c9.728-4.597,13.879-16.209,9.287-25.928c-4.597-9.728-16.2-13.884-25.928-9.287c-1.008,0.477-1.957,1.033-2.841,1.657
					c2.232-2.991,5.186-5.372,8.658-6.883l0.027-0.013c1.502-0.645,3.096-1.117,4.774-1.412
					C259.209,76.341,271.066,85.04,273.507,97.875z"/>
				<g>
					<path style="fill:#407BFF;" d="M268.949,99.38c2.188,11.062-2.931,21.453-11.775,25.309c-1.401,0.607-2.902,1.047-4.466,1.31
						c-7.219,1.183-14.376-1.85-19.332-7.438c2.007,1.432,4.264,2.475,6.635,3.052c4.212,1.061,8.787,0.716,13.015-1.282
						c9.728-4.597,13.879-16.209,9.287-25.928c-4.597-9.728-16.2-13.884-25.928-9.287c-1.008,0.477-1.957,1.033-2.841,1.657
						c-1.933,1.335-3.562,2.992-4.846,4.854c2.51-5.838,7.32-10.264,13.505-11.737l0.027-0.013c0.431-0.095,0.857-0.178,1.296-0.256
						C255.026,77.723,266.416,86.578,268.949,99.38z"/>
					<path style="opacity:0.6;fill:#FFFFFF;" d="M268.949,99.38c2.188,11.062-2.931,21.453-11.775,25.309
						c-1.401,0.607-2.902,1.047-4.466,1.31c-7.219,1.183-14.376-1.85-19.332-7.438c2.007,1.432,4.264,2.475,6.635,3.052
						c4.212,1.061,8.787,0.716,13.015-1.282c9.728-4.597,13.879-16.209,9.287-25.928c-4.597-9.728-16.2-13.884-25.928-9.287
						c-1.008,0.477-1.957,1.033-2.841,1.657c-1.933,1.335-3.562,2.992-4.846,4.854c2.51-5.838,7.32-10.264,13.505-11.737
						l0.027-0.013c0.431-0.095,0.857-0.178,1.296-0.256C255.026,77.723,266.416,86.578,268.949,99.38z"/>
				</g>
			</g>
			<path style="opacity:0.2;fill:#407BFF;" d="M264.159,101.789c0.513,10.743-7.78,19.868-18.523,20.381
				c-10.743,0.513-19.867-7.78-20.381-18.523c-0.513-10.743,7.78-19.868,18.523-20.381S263.646,91.046,264.159,101.789z"/>
			<path style="opacity:0.2;fill:#407BFF;" d="M225.255,103.646c0.513,10.743,9.638,19.036,20.38,18.523
				c10.743-0.513,19.036-9.637,18.523-20.38C255.424,99.82,234.279,98.444,225.255,103.646z"/>
		</g>
		<g>
			<path style="opacity:0.2;" d="M267.104,149.072c-8.744,0.52-17.621,1.687-26.548,3.545l-0.482-0.448l26.078-17.85l0.482,0.448
				C266.634,134.766,266.837,144.326,267.104,149.072z"/>
			<path style="fill:#FFFFFF;" d="M266.622,148.623c-8.744,0.521-17.621,1.687-26.548,3.545c-0.499-4.785-0.871-9.609-1.113-14.468
				c9.135-1.783,18.225-2.897,27.191-3.382C266.198,139.109,266.354,143.878,266.622,148.623z"/>
			<g>
				<path style="opacity:0.3;fill:#407BFF;" d="M260.927,138.941c0.17,1.158-0.496,2.215-1.488,2.361
					c-0.992,0.146-1.934-0.675-2.104-1.833c-0.17-1.158,0.496-2.215,1.488-2.361C259.815,136.962,260.757,137.783,260.927,138.941z"
					/>
				<path style="opacity:0.3;fill:#407BFF;" d="M261.093,144.633c0.17,1.158-0.496,2.215-1.488,2.361
					c-0.992,0.146-1.934-0.675-2.104-1.833c-0.17-1.158,0.496-2.215,1.488-2.361C259.98,142.654,260.923,143.475,261.093,144.633z"
					/>
				<path style="fill:#407BFF;" d="M243.348,148.081c0,0,5.443-0.99,9.775-1.229c-2.173-3.004-5.426-8.134-5.426-8.134
					S244.566,144.605,243.348,148.081z"/>
			</g>
		</g>
	</g>
</g>
</svg>
